<?xml version="1.0" encoding="utf-8"?>
<!-- Generator: Adobe Illustrator 16.0.0, SVG Export Plug-In . SVG Version: 6.00 Build 0)  -->
<!DOCTYPE svg PUBLIC "-//W3C//DTD SVG 1.1//EN" "http://www.w3.org/Graphics/SVG/1.1/DTD/svg11.dtd">
<svg version="1.1" id="Layer_1" xmlns="http://www.w3.org/2000/svg" xmlns:xlink="http://www.w3.org/1999/xlink" x="0px" y="0px"
	 width="992.129px" height="793.7px" viewBox="0 0 992.129 793.7" enable-background="new 0 0 992.129 793.7" xml:space="preserve">
<linearGradient id="SVGID_1_" gradientUnits="userSpaceOnUse" x1="662.0054" y1="307.2954" x2="254.7561" y2="482.5237">
	<stop  offset="0" style="stop-color:#B8870B"/>
	<stop  offset="0.4848" style="stop-color:#FFED57"/>
	<stop  offset="1" style="stop-color:#A27100"/>
</linearGradient>
<path fill="url(#SVGID_1_)" d="M495.343,675.375c-5.25-1.075-19.711-7.854-30.652-13.688c-21.696-11.56-54.264-31.95-86.196-63.439
	c-38.2-37.673-66.147-81.805-83.066-131.172c-14.63-42.688-23.574-103.304-26.581-180.164c-0.731-18.686-1.107-38.413-1.116-58.633
	c-0.003-9.209,0.07-18.645,0.217-28.046l0.39-24.971h464.209l0.392,24.973c0.146,9.478,0.219,18.914,0.215,28.045
	c-0.008,20.217-0.384,39.945-1.116,58.636c-3.003,76.849-11.945,137.464-26.577,180.16c-16.919,49.367-44.865,93.499-83.069,131.172
	c-31.932,31.489-64.5,51.882-86.199,63.443c-10.953,5.84-25.433,12.623-30.685,13.692l-5.081,1.037L495.343,675.375z"/>
<path fill="#FFFFFF" d="M497.258,666.154c-3.188-0.65-15.509-6.055-28.091-12.763c-21.14-11.264-52.873-31.133-83.991-61.82
	c-37.143-36.63-64.31-79.521-80.747-127.481c-14.33-41.813-23.102-101.515-26.074-177.451c-0.727-18.564-1.1-38.167-1.109-58.266
	c-0.003-9.131,0.069-18.515,0.215-27.893l0.245-15.607h445.476l0.243,15.609c0.148,9.423,0.219,18.808,0.215,27.892
	c-0.008,20.109-0.381,39.713-1.109,58.267c-2.967,75.925-11.736,135.629-26.07,177.448c-16.436,47.962-43.604,90.853-80.748,127.482
	c-31.118,30.688-62.851,50.557-83.994,61.822c-12.597,6.715-24.926,12.118-28.109,12.768l-3.175,0.647L497.258,666.154z"/>
<path fill="#151551" d="M293.313,200.892c-0.137,8.77-0.217,18.021-0.213,27.638c0.008,18.189,0.315,37.674,1.097,57.652
	c2.376,60.735,9.139,125.982,25.229,172.931c35.803,104.471,116.813,158.936,157.198,180.452
	c14.535,7.747,23.808,11.221,23.818,11.223h0.001c0.011-0.002,9.286-3.476,23.82-11.223c40.384-21.517,121.398-75.981,157.2-180.452
	c16.089-46.947,22.854-112.195,25.228-172.93c0.783-19.979,1.09-39.462,1.096-57.653c0.007-9.618-0.075-18.869-0.213-27.639H293.313
	z"/>
<linearGradient id="SVGID_2_" gradientUnits="userSpaceOnUse" x1="322.2827" y1="397.3979" x2="678.604" y2="397.3979">
	<stop  offset="0" style="stop-color:#B8870B"/>
	<stop  offset="0.4848" style="stop-color:#FFED57"/>
	<stop  offset="1" style="stop-color:#A27100"/>
</linearGradient>
<path fill="url(#SVGID_2_)" d="M500.444,575.56c-98.239,0-178.161-79.923-178.161-178.162c0-98.239,79.922-178.161,178.161-178.161
	c98.238,0,178.16,79.922,178.16,178.161C678.604,495.637,598.682,575.56,500.444,575.56z"/>
<circle fill="#FFFFFF" cx="500.443" cy="397.397" r="170.539"/>
<circle fill="#151551" cx="500.443" cy="397.397" r="129.701"/>
<circle fill="none" cx="500.444" cy="398.936" r="143.465"/>
<text transform="matrix(-0.4274 -0.9041 0.9041 -0.4274 373.9473 467.1123)"><tspan x="0" y="0" font-family="'TrajanPro-Regular'" font-size="26.9202">S</tspan><tspan x="17.469" y="0.144" font-family="'TrajanPro-Regular'" font-size="26.9202" rotate="6.916">e</tspan><tspan x="34.299" y="2.313" font-family="'TrajanPro-Regular'" font-size="26.9202" rotate="13.737">e</tspan><tspan x="50.741" y="6.372" font-family="'TrajanPro-Regular'" font-size="26.9202" rotate="21.109">k</tspan><tspan x="69.353" y="13.944" font-family="'TrajanPro-Regular'" font-size="26.9202" rotate="27.207"> </tspan><tspan x="79.164" y="18.957" font-family="'TrajanPro-Regular'" font-size="26.9202" rotate="32.693">l</tspan><tspan x="93.022" y="27.983" font-family="'TrajanPro-Regular'" font-size="26.9202" rotate="39.406">e</tspan><tspan x="106.067" y="38.793" font-family="'TrajanPro-Regular'" font-size="26.9202" rotate="46.613">a</tspan><tspan x="118.939" y="52.55" font-family="'TrajanPro-Regular'" font-size="26.9202" rotate="54.421">r</tspan><tspan x="130.641" y="68.89" font-family="'TrajanPro-Regular'" font-size="26.9202" rotate="63.282">n</tspan><tspan x="141.195" y="91.013" font-family="'TrajanPro-Regular'" font-size="26.9202" rotate="70.643">i</tspan><tspan x="145.599" y="102.796" font-family="'TrajanPro-Regular'" font-size="26.9202" rotate="77.996">n</tspan><tspan x="150.436" y="126.685" font-family="'TrajanPro-Regular'" font-size="26.9202" rotate="87.31">g</tspan><tspan x="151.029" y="149.239" font-family="'TrajanPro-Regular'" font-size="26.9202" rotate="94.023"> </tspan><tspan x="150.354" y="160.183" font-family="'TrajanPro-Regular'" font-size="26.9202" rotate="100.048">a</tspan><tspan x="147.131" y="178.713" font-family="'TrajanPro-Regular'" font-size="26.9202" rotate="108.7">n</tspan><tspan x="139.146" y="201.707" font-family="'TrajanPro-Regular'" font-size="26.9202" rotate="118.159">d</tspan><tspan x="127.413" y="222.526" font-family="'TrajanPro-Regular'" font-size="26.9202" rotate="125.081"> </tspan><tspan x="121.297" y="231.568" font-family="'TrajanPro-Regular'" font-size="26.9202" rotate="131.657">u</tspan><tspan x="106.858" y="247.723" font-family="'TrajanPro-Regular'" font-size="26.9202" rotate="140.898">n</tspan><tspan x="87.845" y="262.929" font-family="'TrajanPro-Regular'" font-size="26.9202" rotate="150.484">d</tspan><tspan x="66.938" y="274.318" font-family="'TrajanPro-Regular'" font-size="26.9202" rotate="158.562">e</tspan><tspan x="51.172" y="280.477" font-family="'TrajanPro-Regular'" font-size="26.9202" rotate="165.92">r</tspan><tspan x="31.517" y="285.141" font-family="'TrajanPro-Regular'" font-size="26.9202" rotate="173.166">s</tspan><tspan x="15.387" y="287.015" font-family="'TrajanPro-Regular'" font-size="26.9202" rotate="-179.88">t</tspan><tspan x="-3.107" y="286.853" font-family="'TrajanPro-Regular'" font-size="26.9202" rotate="-172.375">a</tspan><tspan x="-21.764" y="284.414" font-family="'TrajanPro-Regular'" font-size="26.9202" rotate="-163.701">n</tspan><tspan x="-45.097" y="277.477" font-family="'TrajanPro-Regular'" font-size="26.9202" rotate="-153.77">d</tspan><tspan x="-66.35" y="266.575" font-family="'TrajanPro-Regular'" font-size="26.9202" rotate="-146.992">i</tspan><tspan x="-77.049" y="259.926" font-family="'TrajanPro-Regular'" font-size="26.9202" rotate="-139.556">n</tspan><tspan x="-95.428" y="243.943" font-family="'TrajanPro-Regular'" font-size="26.9202" rotate="-130.173">g</tspan></text>
<circle fill="none" cx="500.444" cy="397.396" r="165.36"/>
<text transform="matrix(0.7789 0.6271 -0.6271 0.7789 381.3857 513.8457)"><tspan x="0" y="0" fill="#151551" font-family="'TrajanPro-Bold'" font-size="38">M</tspan><tspan x="60.882" y="-4.616" fill="#151551" font-family="'TrajanPro-Bold'" font-size="38" rotate="-18.958">A</tspan><tspan x="104.884" y="-22.797" fill="#151551" font-family="'TrajanPro-Bold'" font-size="38" rotate="-36.151">C</tspan><tspan x="143.668" y="-55.538" fill="#151551" font-family="'TrajanPro-Bold'" font-size="38" rotate="-51.377">I</tspan><tspan x="165.233" y="-85.9" fill="#151551" font-family="'TrajanPro-Bold'" font-size="38" rotate="-65.382">L</tspan><tspan x="180.862" y="-126.372" fill="#151551" font-family="'TrajanPro-Bold'" font-size="38" rotate="-80.571">E</tspan></text>
<radialGradient id="SVGID_3_" cx="501.0376" cy="367.0713" r="79.4991" gradientTransform="matrix(1 0 0 1.0336 0 -10.0578)" gradientUnits="userSpaceOnUse">
	<stop  offset="0.0753" style="stop-color:#FFED57"/>
	<stop  offset="1" style="stop-color:#A27100"/>
</radialGradient>
<polygon fill="url(#SVGID_3_)" points="500.444,282.368 505.495,379.078 532.811,288.012 515.188,382.529 562.556,304.483 
	523.687,389.151 587.268,330.449 530.301,398.409 604.949,363.805 534.499,409.552 614.162,401.852 548.363,418.527 
	545.655,415.529 540.738,416.613 535.937,421.676 464.952,421.676 386.726,401.852 466.39,409.552 395.939,363.805 470.586,398.409 
	413.618,330.449 477.202,389.151 438.331,304.483 485.7,382.529 468.076,288.012 495.393,379.078 "/>
<g>
	<radialGradient id="SVGID_4_" cx="565.9009" cy="420.6133" r="297.0011" gradientUnits="userSpaceOnUse">
		<stop  offset="0.0753" style="stop-color:#FFED57"/>
		<stop  offset="1" style="stop-color:#A27100"/>
	</radialGradient>
	<circle fill="url(#SVGID_4_)" cx="621.196" cy="486.433" r="6.049"/>
	<radialGradient id="SVGID_5_" cx="565.9009" cy="420.6133" r="296.9993" gradientUnits="userSpaceOnUse">
		<stop  offset="0.0753" style="stop-color:#FFED57"/>
		<stop  offset="1" style="stop-color:#A27100"/>
	</radialGradient>
	<circle fill="url(#SVGID_5_)" cx="379.691" cy="486.433" r="6.049"/>
</g>
<linearGradient id="SVGID_6_" gradientUnits="userSpaceOnUse" x1="561.5669" y1="336.2754" x2="431.1646" y2="466.6777">
	<stop  offset="0" style="stop-color:#B8870B"/>
	<stop  offset="0.4848" style="stop-color:#FFED57"/>
	<stop  offset="1" style="stop-color:#A27100"/>
</linearGradient>
<path fill="url(#SVGID_6_)" d="M500.444,263.695c-73.841,0-133.701,59.861-133.701,133.702c0,73.84,59.86,133.704,133.701,133.704
	c73.84,0,133.7-59.863,133.7-133.704C634.144,323.556,574.284,263.695,500.444,263.695z M500.444,523.768
	c-69.791,0-126.368-56.58-126.368-126.371s56.577-126.368,126.368-126.368c69.79,0,126.367,56.578,126.367,126.368
	S570.234,523.768,500.444,523.768z"/>
<g>
	<path fill="#151551" d="M511.397,275.402"/>
</g>
<g>
	<polygon fill="#FFFFFF" points="553.657,452.098 553.063,450.759 553.056,450.762 	"/>
	<path fill="#FFFFFF" d="M571.897,424.351c-2.611-1.37-7.83-0.448-12.562,2.841c0.743-2.789,0.865-5.643-1.073-6.963
		c-1.24-0.844-2.801-1.09-4.649-0.732c-1.11,0.215-2.284,0.652-3.455,1.234c0.084-1.924-0.274-4.195-2.11-5.447
		c-1.266-0.86-2.895-1.128-4.703-0.776c-3.639,0.706-7.359,3.712-9.013,6.182c-3.689,5.509-11.415,9.484-15.419,10.697
		c-10,3.028-13.084,3.286-13.104,3.288l0.182,2.922c0.13-0.008,3.289-0.233,13.771-3.408c4.564-1.383,12.86-5.685,17.003-11.87
		c1.313-1.963,4.417-4.408,7.138-4.937c1.044-0.202,1.884-0.094,2.498,0.323c1.152,0.784,0.901,3.442,0.534,4.996
		c-2.137,1.552-4.015,3.415-5.129,5.079c-4.235,6.324-13.099,10.887-17.689,12.277c-11.438,3.464-14.955,3.752-14.981,3.754
		l-1.709,3.127c0,0,5.616-0.469,17.539-4.08c2.122-0.643,4.955-1.842,7.883-3.516c4.212-2.408,8.621-5.8,11.391-9.934
		c1.818-2.716,6.554-6.382,9.933-7.037c1.05-0.205,1.872-0.111,2.445,0.278c0.957,0.651-0.197,5.219-2.374,9.429
		c-0.342,0.452-0.672,0.919-0.985,1.408c-5.984,9.332-18.745,15.479-28.016,17.828c-17.909,4.538-24.126,3.697-24.18,3.684
		c0,0,7.018,4.498,24.73-0.808c9.459-2.833,23.2-8.63,29.929-19.124c3.457-5.39,9.048-8.115,12.78-8.366
		c1.479-0.101,2.084,0.235,2.133,0.249c0,0,0.003,0.07-0.061,0.223c-7.909,18.933-17.305,23.49-17.51,23.587l1.188,2.677
		c0.428-0.189,10.561-4.877,19.023-25.135C573.946,426.691,573.405,425.141,571.897,424.351z"/>
</g>
<radialGradient id="SVGID_7_" cx="513.2935" cy="369.5498" r="87.5188" gradientUnits="userSpaceOnUse">
	<stop  offset="0" style="stop-color:#FFFFFF"/>
	<stop  offset="1" style="stop-color:#A7A9AC"/>
</radialGradient>
<circle fill="url(#SVGID_7_)" cx="500.444" cy="417.803" r="38.812"/>
<radialGradient id="SVGID_8_" cx="499.2749" cy="376.0386" r="79.4496" gradientUnits="userSpaceOnUse">
	<stop  offset="0" style="stop-color:#FFFFFF;stop-opacity:0.95"/>
	<stop  offset="0.2023" style="stop-color:#FFFFFF;stop-opacity:0.6512"/>
	<stop  offset="0.4256" style="stop-color:#FFFFFF;stop-opacity:0"/>
</radialGradient>
<circle fill="url(#SVGID_8_)" cx="500.443" cy="409.5" r="25.85"/>
<polygon fill="#151551" points="446.238,416.613 457.904,415.613 467.571,416.113 476.156,415.613 485.404,411.144 499.161,405.279 
	513.571,401.779 515.405,405.446 514.238,413.446 509.134,421.279 495.283,432.029 481.904,437.596 476.238,439.113 
	479.738,444.613 491.904,452.098 505.738,457.446 486.404,469.279 446.238,432.113 "/>
<g>
	<path fill="#FFFFFF" d="M500.218,517.917c-5.485,0-11.041-0.381-16.514-1.133c-36.593-5.023-68.384-26.156-87.221-57.979
		l-3.557-6.01l5.671,4.076c0.122,0.087,12.362,8.843,28.76,17.041c15.942,7.971,33.35,12.013,51.739,12.013
		c11.651,0,23.927-1.631,36.486-4.846c22.412-5.738,31.442-9.029,62.126-25.877c5.986-3.288,8.801-6.404,8.41-7.668
		c-0.241-0.778-1.821-2.097-6.211-2.097c-2.506,0-5.47,0.441-8.81,1.312c-1.529,0.399-5.333,1.968-9.737,3.783
		c-9.665,3.984-22.902,9.442-30.056,10.193c-1.466,0.155-3.595,0.239-5.995,0.239c-3.186,0-14.133-0.18-21.241-2.494
		c-12.303-4.006-29.461-13.033-29.456-18.637c0-0.662,0.252-2.281,2.563-3.028c3.78-1.221,14.636-5.839,20.322-9.417
		c7.356-4.632,11.715-9.43,13.659-11.877c2.442-3.074,3.911-7.449,3.344-9.961c-0.203-0.896-0.641-1.497-1.338-1.838
		c-0.629-0.307-1.461-0.463-2.474-0.463c-5.574,0-14.813,4.698-17.849,6.242c-0.578,0.294-1.258,0.652-2.016,1.053
		c-4.766,2.516-11.967,6.315-16.811,6.41c-1.833,0.035-4.559,0.003-7.631-0.034c-2.517-0.03-5.266-0.064-7.94-0.064
		c-4.009,0-7.017,0.079-9.195,0.24c-4.198,0.312-9.521,2.137-15.156,4.069c-6.759,2.318-13.748,4.715-19.576,4.715
		c-0.813,0-1.598-0.049-2.332-0.143c-24.909-3.182-33.678-24.64-31.319-44.493c3.983-29.008,18.342-55.498,40.437-74.617
		c21.893-18.944,49.813-29.377,78.616-29.377c5.485,0,11.041,0.381,16.515,1.133c65.726,9.022,111.857,69.835,102.837,135.563
		c-3.979,28.981-18.339,55.473-40.434,74.592C556.941,507.483,529.021,517.917,500.218,517.917z M402.689,463.15
		c18.687,27.792,47.997,46.146,81.414,50.733c5.341,0.733,10.763,1.105,16.116,1.105c58.275,0,108.21-43.609,116.148-101.441
		c8.802-64.127-36.208-123.461-100.334-132.264c-5.342-0.733-10.764-1.105-16.116-1.105c-58.275,0-108.208,43.609-116.148,101.438
		c-2.185,18.393,5.866,38.289,28.787,41.218c0.611,0.078,1.271,0.118,1.96,0.118c5.34,0,12.094-2.316,18.626-4.557
		c5.818-1.995,11.314-3.88,15.889-4.221c2.252-0.166,5.331-0.247,9.412-0.247c2.687,0,5.449,0.034,7.976,0.065
		c3.031,0.036,5.728,0.069,7.538,0.034c4.149-0.081,11.255-3.831,15.501-6.072c0.772-0.407,1.466-0.774,2.056-1.073
		c5.538-2.816,13.549-6.561,19.175-6.561c1.462,0,2.728,0.256,3.759,0.761c1.503,0.733,2.508,2.056,2.907,3.821
		c0.868,3.84-1.308,9.158-3.906,12.428c-3.556,4.479-8.667,8.93-14.392,12.535c-5.97,3.756-16.977,8.432-20.981,9.725
		c-0.44,0.143-0.552,0.279-0.553,0.28c-0.245,2.181,11.432,10.599,27.453,15.815c5.321,1.732,13.994,2.35,20.334,2.35
		c2.269,0,4.341-0.082,5.688-0.223c6.734-0.707,19.746-6.072,29.246-9.988c4.689-1.934,8.394-3.461,10.115-3.91
		c3.581-0.934,6.792-1.406,9.548-1.406c6.968,0,8.62,2.908,9.007,4.158c1.317,4.254-5.572,8.781-9.797,11.101
		c-30.976,17.008-40.11,20.335-62.809,26.146c-12.797,3.275-25.316,4.938-37.212,4.938c-18.848,0-36.696-4.146-53.048-12.322
		C416.248,471.63,407.908,466.529,402.689,463.15z"/>
</g>
</svg>
